<?xml version="1.0" encoding="utf-8"?>
<!-- Generator: Adobe Illustrator 22.1.0, SVG Export Plug-In . SVG Version: 6.00 Build 0)  -->
<svg version="1.1" id="Layer_1" xmlns="http://www.w3.org/2000/svg" xmlns:xlink="http://www.w3.org/1999/xlink" x="0px" y="0px"
	 viewBox="0 0 449.8 298.3" style="enable-background:new 0 0 449.8 298.3;" xml:space="preserve">
<style type="text/css">
	.st0{fill:none;stroke:#FFFFFF;stroke-miterlimit:10;}
	.st1{fill:url(#SVGID_1_);}
	.st2{fill:#020202;}
	.st3{fill:url(#SVGID_2_);}
</style>
<line class="st0" x1="407.2" y1="617.8" x2="401.2" y2="617.8"/>
<g>
	
		<image style="overflow:visible;opacity:0.31;" width="449" height="309" xlink:href="6BF72B8839D8352F.png"  transform="matrix(1 0 0 1 -5.7062 -0.2416)">
	</image>
	<g>
		<g>
			<linearGradient id="SVGID_1_" gradientUnits="userSpaceOnUse" x1="28.173" y1="148.9373" x2="436.4563" y2="148.9373">
				<stop  offset="0.6075" style="stop-color:#49514C"/>
				<stop  offset="1" style="stop-color:#7F7F7F"/>
			</linearGradient>
			<path class="st1" d="M436.5,189.5c0,17.7-4.1,33.6-12.3,47.8c-8.2,14.1-19.2,25.3-33.1,33.5c-13.9,8.2-29.7,12.3-47.4,12.3
				c-17.5,0-33.2-4.1-47.1-12.3c-3.6-2.1-7.1-4.5-10.3-7.1c-1.1-0.8-2.7-0.8-3.6,0.2l0,0c-3.1,3.3-7.3,4.9-12.4,4.9
				c-4.9,0-9-1.6-12.3-4.9c-3.3-3.2-4.9-7.3-4.9-12.3l-0.1-39.8l-0.4-63.6c0-0.1,0-0.2,0-0.3c-1-10.7-4.3-18.9-10.1-24.6
				c-7-6.8-16-10.3-27.2-10.3c-7.8,0-14,1.1-19.6,4.3c-21,12-33.7-16.5-12.9-27c11.3-6.3,24.7-8.2,39.2-8.2c9.9,0,18.9,1.7,27,5
				c1.7,0.7,3.6-0.5,3.6-2.4V32c0-5.2,1.6-9.3,4.9-12.4c3.2-3.1,7.3-4.7,12.3-4.7c5.2,0,9.3,1.6,12.4,4.7c3.1,3.1,4.7,7.3,4.7,12.4
				v90.8c0,0,0.3,27.5,0.3,32.1l0.2,55.9c0,0.3,0,0.6,0.1,0.8c1.2,3.5,2.6,6.9,4.3,10.2c5.2,9.6,12.3,17.2,21.4,22.7
				c9.1,5.5,19.2,8.2,30.4,8.2c11.4,0,21.6-2.7,30.6-8.2c8.9-5.4,15.9-12.9,21.2-22.4c0.1-0.2,0.2-0.4,0.4-0.5
				c5.6-5.8,9.3-19.6,9-34c-0.2-11.4-3-23.2-9.4-31.8c0-0.1-0.1-0.1-0.1-0.2c-5.3-9.4-12.4-16.8-21.3-22.3c-9-5.5-19.2-8.2-30.6-8.2
				c-11.2,0-16.9,0.4-26,5.9c-18.9,12.9-41.6-16.4-4.5-29c11.1-5.5,24-7.1,37.3-7.1c16.4,0,31,4.1,44.1,12.3
				c13,8.2,23.3,19.3,30.8,33.3C430.9,150.2,436.7,175.4,436.5,189.5z M174.8,155.4c0-15.5-2.7-28.6-8.2-39.5
				c-1.2-2.4-2.6-4.7-4-6.8c-5-7.5-11.4-13.5-19-17.9c-9.9-5.6-21.2-8.4-34-8.4c-13.2,0-25,3.1-35.3,9.4c-2.9,1.8-5.6,3.7-8.2,5.9
				c-1.5,1.2-3.8,0.6-4.2-1.3c-0.7-2.8-2.1-5.3-4.1-7.3c-3.1-3.1-7.3-4.7-12.4-4.7c-4.9,0-9,1.6-12.3,4.7c-3.3,3.1-4.9,7.3-4.9,12.4
				l0.5,132.4v17.3c0,4.9,1.6,9,4.9,12.3c3.2,3.3,7.3,4.9,12.3,4.9c5.2,0,9.3-1.6,12.4-4.9c3.1-3.2,4.7-7.3,4.7-12.3l-0.5-94.8
				c0-12.6,3.8-22.9,11.4-30.9c7.6-8.1,17.3-12.1,28.9-12.1c11.2,0,20.3,3.4,27.2,10.3c6.9,6.8,10.4,17.3,10.4,31.4l0.5,96.2
				c0,4.9,1.6,9,4.9,12.3c3.2,3.3,7.3,4.9,12.3,4.9c5.2,0,9.3-1.6,12.4-4.9c3.1-3.2,4.7-7.3,4.7-12.3l-0.5-94.8V155.4z"/>
		</g>
	</g>
</g>
<path class="st2" d="M463.2,209.6"/>
<linearGradient id="SVGID_2_" gradientUnits="userSpaceOnUse" x1="308.6432" y1="130.5427" x2="308.6432" y2="130.5427">
	<stop  offset="0.6075" style="stop-color:#49514C"/>
	<stop  offset="1" style="stop-color:#7F7F7F"/>
</linearGradient>
<path class="st3" d="M308.6,130.5"/>
</svg>
