<?xml version="1.0" encoding="utf-8"?>
<!-- Generator: Adobe Illustrator 22.1.0, SVG Export Plug-In . SVG Version: 6.00 Build 0)  -->
<svg version="1.1" id="Layer_1" xmlns="http://www.w3.org/2000/svg" xmlns:xlink="http://www.w3.org/1999/xlink" x="0px" y="0px"
	 viewBox="0 0 284.4 273.9" style="enable-background:new 0 0 284.4 273.9;" xml:space="preserve">
<style type="text/css">
	.st0{fill:none;stroke:#000000;stroke-width:3;stroke-miterlimit:10;}
	.st1{fill:#009245;}
	.st2{fill:#D2D2D2;}
	.st3{fill:#FFFFFF;}
	.st4{fill:#F6F6F6;}
	.st5{fill:none;stroke:#000000;stroke-width:6;stroke-miterlimit:10;}
	.st6{fill:url(#SVGID_1_);stroke:#000000;stroke-width:0.25;stroke-miterlimit:10;}
	.st7{opacity:0.6;fill:#FBB03B;}
	.st8{opacity:0.6;fill:#3DF94A;}
	.st9{opacity:0.6;fill:#3DEBF9;}
</style>
<path class="st0" d="M83.3,225.4"/>
<circle class="st1" cx="142.4" cy="137.9" r="130.8"/>
<g>
	<polygon class="st2" points="97.7,222.6 186.1,222.6 190.9,228 93.9,228 	"/>
	<rect x="51.4" y="50.8" class="st3" width="179.3" height="103.3"/>
	<rect x="134.4" y="172.4" class="st4" width="16" height="49.5"/>
	<path class="st2" d="M232.6,185.9H52.2c-3.1,0-5.6-3.2-5.6-7.1v-22h191.6v22C238.2,182.7,235.7,185.9,232.6,185.9z"/>
	<path class="st5" d="M49.7,157.5V59.1c0-6.3,4.8-11.3,10.7-11.3h164.1c5.9,0,10.7,5.1,10.7,11.3v98.4H49.7z"/>
	<radialGradient id="SVGID_1_" cx="142.4079" cy="171.2827" r="4.4583" gradientUnits="userSpaceOnUse">
		<stop  offset="0" style="stop-color:#FFFFFF"/>
		<stop  offset="1" style="stop-color:#000000;stop-opacity:0.2"/>
	</radialGradient>
	<circle class="st6" cx="142.4" cy="171.3" r="4.5"/>
	<g>
		<circle class="st7" cx="141.1" cy="87.5" r="26.4"/>
		<circle class="st8" cx="122.7" cy="117.3" r="26.4"/>
		<circle class="st9" cx="159.4" cy="117.3" r="26.4"/>
	</g>
</g>
</svg>
