<?xml version="1.0" encoding="utf-8"?>
<!-- Generator: Adobe Illustrator 22.1.0, SVG Export Plug-In . SVG Version: 6.00 Build 0)  -->
<svg version="1.1" id="Layer_1" xmlns="http://www.w3.org/2000/svg" xmlns:xlink="http://www.w3.org/1999/xlink" x="0px" y="0px"
	 viewBox="0 0 157.3 159.3" style="enable-background:new 0 0 157.3 159.3;" xml:space="preserve">
<style type="text/css">
	.st0{opacity:0.9;fill:#3A5A98;}
	.st1{fill:#FFEED7;}
</style>
<path class="st0" d="M152.4,131.6c0,12.6-10.2,22.8-22.8,22.8H25.2c-12.6,0-22.8-10.2-22.8-22.8V27.2c0-12.6,10.2-22.8,22.8-22.8
	h104.4c12.6,0,22.8,10.2,22.8,22.8V131.6z"/>
<path class="st1" d="M117.4,91.1l2.4-18.8h-18.6v-12c0-5.4,1.5-9.2,9.3-9.2l9.9,0V34.3c-1.7-0.2-7.6-0.7-14.5-0.7
	c-14.4,0-24.2,8.8-24.2,24.9v13.9H65.6v18.8h16.2v48.3h19.4V91.1H117.4z"/>
</svg>
