<?xml version="1.0" encoding="utf-8"?>
<!-- Generator: Adobe Illustrator 22.1.0, SVG Export Plug-In . SVG Version: 6.00 Build 0)  -->
<svg version="1.1" id="Layer_1" xmlns="http://www.w3.org/2000/svg" xmlns:xlink="http://www.w3.org/1999/xlink" x="0px" y="0px"
	 viewBox="0 0 157.3 159.3" style="enable-background:new 0 0 157.3 159.3;" xml:space="preserve">
<style type="text/css">
	.st0{opacity:0.7;fill:#E54A55;}
	.st1{fill:#FFEED7;}
</style>
<path class="st0" d="M153.3,131.5c0,12.6-10.2,22.8-22.8,22.8H26.1c-12.6,0-22.8-10.2-22.8-22.8V27.1c0-12.6,10.2-22.8,22.8-22.8
	h104.4c12.6,0,22.8,10.2,22.8,22.8V131.5z"/>
<g>
	<path class="st1" d="M84.1,36.6c0.8,0.5,1.8,1.3,2.8,2.2c1,1,2,2.3,2.9,3.8c0.9,1.4,1.7,3.1,2.4,5c0.6,1.9,0.9,4.2,0.9,6.7
		C93,59.1,92,62.8,90,65.6c-1,1.4-2,2.6-3.1,3.8c-1.2,1.1-2.5,2.3-3.9,3.5c-0.8,0.8-1.5,1.7-2.2,2.8c-0.8,1.1-1.2,2.3-1.2,3.7
		c0,1.4,0.4,2.5,1.2,3.4c0.7,0.9,1.3,1.6,2,2.2l4.5,3.6c2.8,2.3,5.2,4.8,7.3,7.5c2,2.8,3,6.4,3.1,10.9c0,6.4-2.8,12-8.4,16.9
		c-5.8,5.1-14.2,7.7-25.2,7.9c-9.2-0.1-16-2-20.6-5.9c-4.6-3.6-6.9-7.9-6.9-12.8c0-2.4,0.7-5.1,2.2-8.1c1.4-3,4.1-5.6,7.8-7.8
		c4.2-2.4,8.7-4,13.4-4.9c4.6-0.7,8.5-1.1,11.5-1.1c-0.9-1.2-1.8-2.6-2.5-4c-0.9-1.4-1.3-3-1.3-4.9c0-1.2,0.2-2.1,0.5-2.9
		c0.3-0.8,0.6-1.6,0.8-2.3c-1.5,0.2-2.9,0.3-4.2,0.3c-7-0.1-12.3-2.3-16-6.6c-3.8-4-5.8-8.7-5.8-14c0-6.4,2.7-12.3,8.1-17.5
		c3.7-3.1,7.6-5.1,11.6-6c4-0.8,7.7-1.2,11.2-1.2h26.2l-8.1,4.7H84.1z M89.2,112.1c0-3.3-1.1-6.2-3.3-8.7c-2.3-2.3-5.9-5.2-10.8-8.6
		c-0.8-0.1-1.8-0.1-2.9-0.1c-0.7-0.1-2.4,0-5.1,0.3c-2.7,0.4-5.5,1-8.3,1.9c-0.7,0.3-1.6,0.6-2.8,1.2c-1.2,0.6-2.4,1.3-3.7,2.4
		c-1.2,1.1-2.2,2.4-3.1,4c-1,1.7-1.4,3.7-1.4,6c0,4.6,2.1,8.4,6.3,11.4c4,3,9.4,4.5,16.3,4.6c6.2-0.1,10.9-1.5,14.2-4.1
		C87.6,119.6,89.2,116.2,89.2,112.1z M70.9,73.7c3.5-0.1,6.3-1.4,8.6-3.7c1.1-1.7,1.8-3.4,2.1-5.1c0.2-1.8,0.3-3.2,0.3-4.4
		c0-5.2-1.3-10.4-4-15.6c-1.2-2.5-2.9-4.6-4.9-6.2c-2.1-1.5-4.4-2.3-7.1-2.4c-3.6,0.1-6.5,1.5-8.9,4.3c-2,2.9-2.9,6.2-2.8,9.7
		c0,4.7,1.4,9.7,4.2,14.8c1.3,2.4,3.1,4.4,5.2,6.1C65.8,72.9,68.2,73.7,70.9,73.7z"/>
	<polygon class="st1" points="135.9,46.2 122.1,46.2 122.1,32.5 115.4,32.5 115.4,46.2 101.7,46.2 101.7,52.9 115.4,52.9 
		115.4,66.7 122.1,66.7 122.1,52.9 135.9,52.9 	"/>
</g>
</svg>
