<?xml version="1.0" encoding="utf-8"?>
<!-- Generator: Adobe Illustrator 22.1.0, SVG Export Plug-In . SVG Version: 6.00 Build 0)  -->
<svg version="1.1" id="Layer_1" xmlns="http://www.w3.org/2000/svg" xmlns:xlink="http://www.w3.org/1999/xlink" x="0px" y="0px"
	 viewBox="0 0 157.3 159.3" style="enable-background:new 0 0 157.3 159.3;" xml:space="preserve">
<style type="text/css">
	.st0{opacity:0.8;fill:#326699;}
	.st1{fill:#FFEED7;}
</style>
<path class="st0" d="M152.8,132c0,12.6-10.2,22.8-22.8,22.8H25.6C13,154.8,2.8,144.5,2.8,132V27.6C2.8,15,13,4.8,25.6,4.8H130
	c12.6,0,22.8,10.2,22.8,22.8V132z"/>
<path class="st1" d="M46.4,38h64.8c6.2,0,11.2,5,11.2,11.2v64.8c0,6.2-5,11.2-11.2,11.2H46.4c-6.2,0-11.2-5-11.2-11.2V49.2
	C35.2,43.1,40.2,38,46.4,38z M98.7,47.7c-2.2,0-3.9,1.8-3.9,3.9V61c0,2.2,1.8,3.9,3.9,3.9h9.9c2.2,0,3.9-1.8,3.9-3.9v-9.4
	c0-2.2-1.8-3.9-3.9-3.9H98.7z M112.6,74.9h-7.7c0.7,2.4,1.1,4.9,1.1,7.5c0,14.5-12.1,26.3-27.1,26.3c-15,0-27.1-11.8-27.1-26.3
	c0-2.6,0.4-5.1,1.1-7.5h-8v36.9c0,1.9,1.6,3.5,3.5,3.5h60.7c1.9,0,3.5-1.6,3.5-3.5V74.9z M78.9,64.5c-9.7,0-17.5,7.6-17.5,17
	c0,9.4,7.8,17,17.5,17c9.7,0,17.5-7.6,17.5-17C96.4,72.1,88.6,64.5,78.9,64.5z"/>
</svg>
