<?xml version="1.0" encoding="utf-8"?>
<!-- Generator: Adobe Illustrator 22.1.0, SVG Export Plug-In . SVG Version: 6.00 Build 0)  -->
<svg version="1.1" id="Layer_1" xmlns="http://www.w3.org/2000/svg" xmlns:xlink="http://www.w3.org/1999/xlink" x="0px" y="0px"
	 viewBox="0 0 157.3 159.3" style="enable-background:new 0 0 157.3 159.3;" xml:space="preserve">
<style type="text/css">
	.st0{opacity:0.7;fill:#CA2128;}
	.st1{fill:#FFEED7;}
</style>
<path class="st0" d="M152.6,131.4c0,12.6-10.2,22.8-22.8,22.8H25.4c-12.6,0-22.8-10.2-22.8-22.8V27c0-12.6,10.2-22.8,22.8-22.8
	h104.4c12.6,0,22.8,10.2,22.8,22.8V131.4z"/>
<path class="st1" d="M66.6,22.7h-6.5l-4.4,16.9l-4.6-16.9h-6.8c1.4,4,2.8,8,4.1,12c2.1,6,3.4,10.5,3.9,13.6v17.5h6.5V48.3L66.6,22.7
	z M83.9,55.4V44.1c0-3.4-0.6-5.9-1.8-7.6c-1.6-2.2-3.9-3.3-6.8-3.3c-2.9,0-5.2,1.1-6.8,3.3c-1.2,1.6-1.8,4.1-1.8,7.6v11.3
	c0,3.4,0.6,5.9,1.8,7.6c1.6,2.2,3.9,3.3,6.8,3.3c2.9,0,5.2-1.1,6.8-3.3C83.3,61.3,83.9,58.8,83.9,55.4z M78.1,56.5
	c0,3-0.9,4.5-2.8,4.5c-1.9,0-2.8-1.5-2.8-4.5V43c0-3,0.9-4.5,2.8-4.5c1.9,0,2.8,1.5,2.8,4.5V56.5z M105.4,65.8V33.7h-5.8v24.6
	c-1.3,1.8-2.5,2.7-3.7,2.7c-0.8,0-1.2-0.5-1.4-1.4c-0.1-0.2-0.1-0.9-0.1-2.3V33.7h-5.8v25.4c0,2.3,0.2,3.8,0.5,4.8
	c0.6,1.6,1.9,2.4,3.7,2.4c2.1,0,4.3-1.3,6.6-4v3.5H105.4z"/>
<path class="st1" d="M124.3,104.8c0,7.4,0,15.3-1.7,22.5c-1.2,5.1-5.3,8.8-10.3,9.4c-11.8,1.3-23.8,1.3-35.7,1.3
	c-11.9,0-23.9,0-35.7-1.3c-5-0.6-9.1-4.3-10.3-9.4c-1.7-7.2-1.7-15.1-1.7-22.5c0-7.4,0-15.3,1.7-22.5c1.2-5.1,5.3-8.8,10.3-9.4
	c11.8-1.3,23.8-1.3,35.7-1.3c11.9,0,23.9,0,35.7,1.3c5,0.6,9.1,4.3,10.3,9.4C124.3,89.5,124.3,97.3,124.3,104.8z"/>
<path class="st0" d="M56.2,88.7v-6H36.1v6h6.8v36.7h6.4V88.7H56.2z M67.8,125.4v-3.5c-2.3,2.6-4.5,3.9-6.6,3.9
	c-1.9,0-3.1-0.8-3.7-2.4c-0.3-1-0.5-2.5-0.5-4.7V93.6h5.8V117c0,1.3,0,2.1,0.1,2.2c0.1,0.9,0.6,1.3,1.3,1.3c1.2,0,2.4-0.9,3.6-2.7
	V93.6h5.8v31.8H67.8z M89.7,116.3c0,2.9-0.8,4.3-2.5,4.3c-0.9,0-1.9-0.5-2.9-1.4V99.8c1-0.9,1.9-1.4,2.9-1.4c1.7,0,2.5,1.5,2.5,4.3
	V116.3z M95.4,115.9v-12.7c0-3-0.2-5.1-0.6-6.4c-0.8-2.4-2.3-3.6-4.6-3.6c-2.1,0-4.1,1.2-5.9,3.4V82.7h-5.8v42.7h5.8v-3.1
	c1.9,2.4,3.9,3.5,5.9,3.5c2.3,0,3.8-1.2,4.6-3.6C95.2,120.9,95.4,118.8,95.4,115.9z M111.4,105.7h-5.8v-2.9c0-2.9,1-4.4,2.9-4.4
	c1.9,0,2.9,1.5,2.9,4.4V105.7z M117.2,115.2v-0.8h-5.9c0,2.3-0.1,3.6-0.1,3.9c-0.3,1.5-1.2,2.3-2.6,2.3c-2,0-2.9-1.5-2.9-4.4v-5.6
	h11.5V104c0-3.4-0.6-5.9-1.8-7.5c-1.6-2.2-3.9-3.3-6.8-3.3c-2.9,0-5.2,1.1-6.9,3.3c-1.2,1.6-1.8,4.1-1.8,7.5v11.1
	c0,3.4,0.6,5.9,1.8,7.5c1.7,2.2,4,3.3,7,3.3c3,0,5.4-1.1,7-3.4c0.7-1,1.1-2.2,1.3-3.5C117.1,118.4,117.2,117.1,117.2,115.2z"/>
</svg>
